<?xml version="1.0" encoding="UTF-8"?>
<svg width="201px" height="40px" viewBox="0 0 201 40" version="1.1" xmlns="http://www.w3.org/2000/svg" xmlns:xlink="http://www.w3.org/1999/xlink">
    <!-- Generator: Sketch 47.1 (45422) - http://www.bohemiancoding.com/sketch -->
    <title>Marvel Logo</title>
    <desc>Created with Sketch.</desc>
    <defs></defs>
    <g id="Page-1" stroke="none" stroke-width="1" fill="none" fill-rule="evenodd">
        <g id="Movies-Listing" transform="translate(-619.000000, -25.000000)">
            <g id="Marvel-Logo" transform="translate(619.000000, 25.000000)">
                <rect id="Rectangle-path" fill="#ED1D24" fill-rule="nonzero" x="0.0809190809" y="0.0389081886" width="99.9000999" height="39.9476923"></rect>
                <path d="M84.6216783,9.34828784 L84.6216783,3.23384615 L67.4969031,3.23384615 L64.6806194,23.6609429 L61.8938062,3.23394541 L55.7182817,3.23394541 L56.4100899,8.68456576 C55.6968032,7.28823821 53.1684316,3.23394541 47.6042957,3.23394541 C47.5676324,3.23156328 41.4203796,3.23394541 41.4203796,3.23394541 L41.3967033,33.0080397 L36.8955045,3.23394541 L28.8076923,3.2292804 L24.1511489,34.0793052 L24.1535465,3.2337469 L16.412987,3.2337469 L13.6224775,20.5622829 L10.9043956,3.23394541 L3.16133866,3.23394541 L3.16133866,36.7730025 L9.25884116,36.7730025 L9.25884116,20.6072457 L12.0324675,36.7726055 L15.2741259,36.7726055 L18.0087912,20.6072457 L18.0087912,36.7726055 L29.7637363,36.7726055 L30.477023,31.6118114 L35.2096903,31.6118114 L35.9205794,36.7726055 L47.4611389,36.7796526 L47.4705295,36.7796526 L47.4705295,36.7726055 L47.4777223,36.7726055 L47.4849151,36.7726055 L47.4849151,25.8857568 L48.8997003,25.6809926 L51.8286713,36.7796526 L51.8358641,36.7796526 L57.7909091,36.7796526 L57.7979021,36.7796526 L57.7955045,36.7726055 L57.8060939,36.7726055 L57.8132867,36.7726055 L53.9696304,23.7644665 C55.9174825,22.3330025 58.1167832,18.6977667 57.5314685,15.2201489 L57.5314685,15.217866 C57.5384615,15.2649132 61.1594406,36.7940447 61.1594406,36.7940447 L68.2588412,36.7726055 L73.1098901,6.37220844 L73.1098901,36.7727047 L84.621978,36.7727047 L84.621978,30.7406452 L79.1574426,30.7406452 L79.1574426,23.0487345 L84.621978,23.0487345 L84.621978,16.9248635 L79.1574426,16.9248635 L79.1574426,9.34828784 L84.6216783,9.34828784 Z M31.1953047,26.2933002 L32.8694306,11.9547395 L34.6076923,26.2933002 L31.1953047,26.2933002 Z M48.9194805,19.6725558 C48.4502498,19.89866 47.9609391,20.0117122 47.4846154,20.0117122 L47.4846154,9.22352357 C47.4929071,9.22352357 47.5024975,9.22133995 47.5142857,9.22133995 C47.9918082,9.21895782 51.5521479,9.36486352 51.5521479,14.5587097 C51.5521479,17.2756328 50.3412587,18.9874938 48.9194805,19.6725558 L48.9194805,19.6725558 Z M96.9074925,30.7359801 L96.9074925,36.7679404 L85.6773227,36.7679404 L85.6773227,3.2292804 L91.7238761,3.2292804 L91.7238761,30.7359801 L96.9074925,30.7359801 Z" id="Shape" fill="#FFFFFF" fill-rule="nonzero"></path>
                <path d="M120.628211,26.7624309 L120.628211,28.7071823 C120.628211,29.6795629 120.443513,30.600364 120.074112,31.4696133 C119.704711,32.3388625 119.194945,33.1123355 118.544799,33.7900552 C117.894653,34.467775 117.133698,35.0055229 116.261911,35.4033149 C115.390125,35.801107 114.45186,36 113.447089,36 C112.590078,36 111.718305,35.8821375 110.831742,35.6464088 C109.94518,35.4106802 109.147285,34.9981613 108.438035,34.4088398 C107.728785,33.8195182 107.14514,33.0607781 106.687083,32.1325967 C106.229025,31.2044152 106,30.0184234 106,28.5745856 L106,11.2486188 C106,10.2173061 106.17731,9.25967293 106.531935,8.37569061 C106.88656,7.49170829 107.388938,6.72560177 108.039084,6.07734807 C108.68923,5.42909436 109.464961,4.92081215 110.366299,4.55248619 C111.267638,4.18416022 112.265006,4 113.358433,4 C115.486184,4 117.214955,4.69244243 118.544799,6.07734807 C119.194945,6.75506785 119.704711,7.55800641 120.074112,8.48618785 C120.443513,9.41436928 120.628211,10.4235673 120.628211,11.5138122 L120.628211,13.281768 L116.106764,13.281768 L116.106764,11.7790055 C116.106764,10.8950232 115.855575,10.1289167 115.353189,9.48066298 C114.850804,8.83240928 114.171116,8.50828729 113.314105,8.50828729 C112.191126,8.50828729 111.444947,8.85450851 111.075546,9.54696133 C110.706145,10.2394141 110.521447,11.1160168 110.521447,12.1767956 L110.521447,28.2651934 C110.521447,29.1786418 110.720921,29.9447483 111.119874,30.5635359 C111.518827,31.1823235 112.235454,31.4917127 113.269777,31.4917127 C113.565298,31.4917127 113.882978,31.4401478 114.222827,31.3370166 C114.562676,31.2338853 114.880357,31.0644579 115.175878,30.8287293 C115.441846,30.5930007 115.663484,30.2688787 115.840796,29.8563536 C116.018109,29.4438285 116.106764,28.9281799 116.106764,28.3093923 L116.106764,26.7624309 L120.628211,26.7624309 Z M122.14146,11.6906077 C122.14146,10.4235664 122.363097,9.30387227 122.806378,8.33149171 C123.24966,7.35911116 123.840693,6.54880619 124.579495,5.90055249 C125.288745,5.28176486 126.094027,4.8103147 126.995366,4.48618785 C127.896705,4.16206099 128.805418,4 129.721533,4 C130.637647,4 131.54636,4.16206099 132.447699,4.48618785 C133.349038,4.8103147 134.169096,5.28176486 134.907898,5.90055249 C135.617148,6.54880619 136.193405,7.35911116 136.636687,8.33149171 C137.079968,9.30387227 137.301605,10.4235664 137.301605,11.6906077 L137.301605,28.3093923 C137.301605,29.6353657 137.079968,30.7697927 136.636687,31.7127072 C136.193405,32.6556217 135.617148,33.436461 134.907898,34.0552486 C134.169096,34.7035023 133.349038,35.1896853 132.447699,35.5138122 C131.54636,35.837939 130.637647,36 129.721533,36 C128.805418,36 127.896705,35.837939 126.995366,35.5138122 C126.094027,35.1896853 125.288745,34.7035023 124.579495,34.0552486 C123.840693,33.436461 123.24966,32.6556217 122.806378,31.7127072 C122.363097,30.7697927 122.14146,29.6353657 122.14146,28.3093923 L122.14146,11.6906077 Z M126.662907,28.3093923 C126.662907,29.3996371 126.965811,30.2025757 127.571629,30.718232 C128.177447,31.2338884 128.894074,31.4917127 129.721533,31.4917127 C130.548991,31.4917127 131.265618,31.2338884 131.871436,30.718232 C132.477254,30.2025757 132.780158,29.3996371 132.780158,28.3093923 L132.780158,11.6906077 C132.780158,10.6003629 132.477254,9.79742431 131.871436,9.28176796 C131.265618,8.7661116 130.548991,8.50828729 129.721533,8.50828729 C128.894074,8.50828729 128.177447,8.7661116 127.571629,9.28176796 C126.965811,9.79742431 126.662907,10.6003629 126.662907,11.6906077 L126.662907,28.3093923 Z M139.391117,35.7348066 L139.391117,4.26519337 L143.735253,4.26519337 L149.542209,20.9281768 L149.630865,20.9281768 L155.393493,4.26519337 L159.781956,4.26519337 L159.781956,35.7348066 L155.260509,35.7348066 L155.260509,16.5966851 L155.171854,16.5966851 L150.694735,30.121547 L148.434011,30.121547 L144.00122,16.5966851 L143.912564,16.5966851 L143.912564,35.7348066 L139.391117,35.7348066 Z M162.27042,35.7348066 L162.27042,4.26519337 L166.791866,4.26519337 L166.791866,35.7348066 L162.27042,35.7348066 Z M183.642573,26.7624309 L183.642573,28.7071823 C183.642573,29.6795629 183.457875,30.600364 183.088474,31.4696133 C182.719073,32.3388625 182.209307,33.1123355 181.559161,33.7900552 C180.909015,34.467775 180.14806,35.0055229 179.276274,35.4033149 C178.404487,35.801107 177.466222,36 176.461451,36 C175.604441,36 174.732667,35.8821375 173.846104,35.6464088 C172.959542,35.4106802 172.161647,34.9981613 171.452397,34.4088398 C170.743147,33.8195182 170.159502,33.0607781 169.701445,32.1325967 C169.243387,31.2044152 169.014362,30.0184234 169.014362,28.5745856 L169.014362,11.2486188 C169.014362,10.2173061 169.191672,9.25967293 169.546297,8.37569061 C169.900922,7.49170829 170.4033,6.72560177 171.053446,6.07734807 C171.703592,5.42909436 172.479323,4.92081215 173.380661,4.55248619 C174.282,4.18416022 175.279368,4 176.372795,4 C178.500546,4 180.229317,4.69244243 181.559161,6.07734807 C182.209307,6.75506785 182.719073,7.55800641 183.088474,8.48618785 C183.457875,9.41436928 183.642573,10.4235673 183.642573,11.5138122 L183.642573,13.281768 L179.121126,13.281768 L179.121126,11.7790055 C179.121126,10.8950232 178.869937,10.1289167 178.367551,9.48066298 C177.865166,8.83240928 177.185478,8.50828729 176.328467,8.50828729 C175.205488,8.50828729 174.459309,8.85450851 174.089908,9.54696133 C173.720507,10.2394141 173.535809,11.1160168 173.535809,12.1767956 L173.535809,28.2651934 C173.535809,29.1786418 173.735283,29.9447483 174.134236,30.5635359 C174.533189,31.1823235 175.249816,31.4917127 176.28414,31.4917127 C176.57966,31.4917127 176.897341,31.4401478 177.23719,31.3370166 C177.577039,31.2338853 177.894719,31.0644579 178.19024,30.8287293 C178.456209,30.5930007 178.677846,30.2688787 178.855158,29.8563536 C179.032471,29.4438285 179.121126,28.9281799 179.121126,28.3093923 L179.121126,26.7624309 L183.642573,26.7624309 Z M201,13.3259669 L196.478553,13.3259669 L196.478553,12.3093923 C196.478553,11.2780796 196.234752,10.3867441 195.747143,9.63535912 C195.259533,8.88397414 194.439475,8.50828729 193.286943,8.50828729 C192.66635,8.50828729 192.163972,8.62614983 191.779795,8.86187845 C191.395617,9.09760707 191.085325,9.39226343 190.848908,9.74585635 C190.612492,10.1289154 190.449958,10.5635335 190.361301,11.0497238 C190.272645,11.535914 190.228318,12.0441962 190.228318,12.5745856 C190.228318,13.1933733 190.250481,13.7090219 190.29481,14.121547 C190.339138,14.534072 190.449956,14.9023925 190.627269,15.2265193 C190.804581,15.5506462 191.063158,15.8305697 191.403007,16.0662983 C191.742856,16.302027 192.208295,16.537752 192.799336,16.7734807 L196.256914,18.1436464 C197.261685,18.5267054 198.074355,18.9760564 198.694949,19.4917127 C199.315542,20.0073691 199.803145,20.6040482 200.15777,21.281768 C200.482843,21.9889538 200.70448,22.7918924 200.822688,23.6906077 C200.940897,24.5893231 201,25.6132539 201,26.7624309 C201,28.0884044 200.867018,29.3185947 200.601049,30.4530387 C200.33508,31.5874827 199.906581,32.5524822 199.315539,33.3480663 C198.694946,34.1731165 197.882275,34.8213604 196.877504,35.2928177 C195.872733,35.7642749 194.64634,36 193.198288,36 C192.10486,36 191.085329,35.8084734 190.139662,35.4254144 C189.193995,35.0423554 188.381325,34.5119739 187.701627,33.8342541 C187.021929,33.1565344 186.482611,32.3683286 186.083658,31.4696133 C185.684705,30.5708979 185.485231,29.5911655 185.485231,28.5303867 L185.485231,26.8508287 L190.006678,26.8508287 L190.006678,28.2651934 C190.006678,29.0902435 190.250479,29.8342508 190.738089,30.4972376 C191.225698,31.1602243 192.045756,31.4917127 193.198288,31.4917127 C193.966642,31.4917127 194.565063,31.3812166 194.993568,31.160221 C195.422073,30.9392254 195.754529,30.6224698 195.990946,30.2099448 C196.227363,29.7974197 196.367733,29.3038703 196.412061,28.7292818 C196.456389,28.1546933 196.478553,27.5138157 196.478553,26.8066298 C196.478553,25.9815797 196.449001,25.3038701 196.389897,24.7734807 C196.330793,24.2430913 196.212587,23.8158396 196.035274,23.4917127 C195.828409,23.1675859 195.555057,22.9023951 195.215208,22.6961326 C194.875359,22.4898701 194.424696,22.2688778 193.863206,22.0331492 L190.627269,20.7071823 C188.676831,19.9115982 187.369171,18.8582018 186.704249,17.5469613 C186.039327,16.2357209 185.706871,14.5930117 185.706871,12.6187845 C185.706871,11.4401414 185.869405,10.3204473 186.194478,9.25966851 C186.519551,8.19888972 187.007153,7.28545503 187.657299,6.51933702 C188.277893,5.75321901 189.068399,5.14180707 190.028842,4.68508287 C190.989285,4.22835867 192.134411,4 193.464255,4 C194.587234,4 195.614154,4.20625945 196.545045,4.61878453 C197.475936,5.03130961 198.281218,5.57642387 198.960916,6.25414365 C200.320312,7.66851536 201,9.2891253 201,11.1160221 L201,13.3259669 Z" id="Combined-Shape" fill="#FFFFFF"></path>
                <rect id="Path" fill="#FFFFFF" x="106" y="0" width="95" height="2"></rect>
                <rect id="Path" fill="#FFFFFF" x="106" y="38" width="95" height="2"></rect>
            </g>
        </g>
    </g>
</svg>